# xmcd
#
# Track frame offsets: 
#        150
#        20100
#        38872
#        65261
#        82495
#        103254
#        121263
#        138722
#        161168
#        177627
#        203415
#
# Disc length: 2938 seconds
#
# Revision: 0
# Processed by: cddbd v1.5.2PL0 Copyright (c) Steve Scherf et al.
# Submitted via: ExactAudioCopy v0.99pb3
#
DISCID=a50b780b
DTITLE=Billy Ray Charles - Sweet, Black And Hot
DYEAR=2000
DGENRE=Blues
TTITLE0=Sweet, Black And Hot
TTITLE1=Is That Your Final Answer
TTITLE2=She's Full Figured
TTITLE3=Giving Up
TTITLE4=There's More Than One Way To Skin A Cat
TTITLE5=Shakin' My Shaker
TTITLE6=Thanks But No Thanks
TTITLE7=Mr. Nice
TTITLE8=That Red Dress
TTITLE9=Blues Attitude
TTITLE10=Giving Up (Remix Version 2000)
EXTD=
EXTT0=
EXTT1=
EXTT2=
EXTT3=
EXTT4=
EXTT5=
EXTT6=
EXTT7=
EXTT8=
EXTT9=
EXTT10=
PLAYORDER=
